<svg width="28" height="29" viewBox="0 0 28 29" fill="none" xmlns="http://www.w3.org/2000/svg">
<path d="M19.9934 17.7379C19.9667 17.5728 19.8632 17.4317 19.7082 17.3479L17.4146 15.9965L17.3957 15.9859C17.2995 15.9378 17.1933 15.9131 17.0858 15.9139C16.8936 15.9139 16.7101 15.9867 16.5827 16.1144L15.9058 16.7917C15.8768 16.8192 15.7824 16.8591 15.7538 16.8605C15.7459 16.8599 14.9661 16.8037 13.5304 15.3679C12.0973 13.9351 12.0365 13.1528 12.036 13.1528C12.0368 13.1128 12.0762 13.0187 12.1042 12.9896L12.6814 12.4125C12.8848 12.2087 12.9458 11.8707 12.8251 11.609L11.5502 9.21009C11.4576 9.01937 11.2776 8.90161 11.0779 8.90161C10.9366 8.90161 10.8003 8.96017 10.6938 9.06657L9.12015 10.6367C8.96927 10.7867 8.83935 11.0491 8.81103 11.2603C8.79727 11.3613 8.51807 13.7712 11.8221 17.0757C14.627 19.8803 16.8142 20.0983 17.4182 20.0983C17.4918 20.0992 17.5653 20.0954 17.6384 20.0869C17.849 20.0587 18.111 19.9291 18.261 19.7789L19.8333 18.2067C19.9616 18.0778 20.0202 17.9074 19.9934 17.7379Z" fill="#8E8F90"/>
</svg>
