<svg width="161" height="107" viewBox="0 0 161 107" fill="none" xmlns="http://www.w3.org/2000/svg">
<g id="americanexpress-light-large">
<rect id="card_bg" x="0.5" y="0.166626" width="160" height="106.667" rx="4" fill="#DFE3E8"/>
<g id="amex">
<path id="Path" d="M12.6664 35.2999L14.4664 39.6999H8.43311L10.2664 35.2999L11.4664 32.3666L12.6664 35.2999Z" fill="#296DB6"/>
<path id="Shape" fill-rule="evenodd" clip-rule="evenodd" d="M139.467 29.8333V24.3H151.433V51.5H140.167L136.833 46.2333V51.5H120.5L118.867 47.4333H115.133L113.6 51.5H104.033C101.148 51.5724 98.3178 50.7068 95.9667 49.0333V51.5H79.9333L76.0667 46.6333V51.5H14.9333L13.4 47.4333H9.66667L8.1 51.5H0.5V47.4333H5.56667L7.16667 43.4999H15.9333L17.5333 47.2999H22.6667L14.6 28.4999H8.66667L0.5 47.4333V36.8333L5.83333 24.1666H16.7L19.8333 31.1666V24.1666H33.1667L35.1667 30.1666L37.1667 24.3H95.9667V27.0333C98.3413 25.1794 101.289 24.2127 104.3 24.3H122.1L125.433 31.3V24.3H135.9L139.467 29.8333ZM42.4672 47.2999H46.8672V28.4999H39.5005L35.7672 39.3666L35.1672 41.4333L34.5672 39.3666L30.9005 28.4999H23.5339V47.2999H27.9005V34.9666V32.0999L28.8339 34.9666L33.1005 47.2999H37.1672L41.6005 34.9666L42.4672 32.0999V34.9666V47.2999ZM65.5 32.4999H54.9333V35.8333H65.2333V39.8333H54.9333V43.1666H65.5V47.1666H50.5V28.4999H65.5V32.4999ZM75.2013 40.6334L80.8013 47.3H86.6013L80.3346 40.3667C83.3189 40.0069 85.5411 37.4383 85.468 34.4334C85.4922 32.7204 84.7707 31.0815 83.491 29.9426C82.2114 28.8037 80.4999 28.2772 78.8013 28.5H68.5013V47.3H73.1346V40.6334H75.2013ZM92.1012 47.2999H87.5345V28.4999H92.1012V47.2999ZM103.499 47.2999H103.766L105.599 43.2999H104.166C102.783 43.371 101.439 42.8239 100.499 41.8065C99.5591 40.7892 99.1195 39.4067 99.2995 38.0333V37.7666C99.141 36.4038 99.5902 35.0404 100.528 34.0387C101.465 33.037 102.796 32.4986 104.166 32.5666H109.133V28.4999H103.833C101.342 28.3227 98.9 29.2494 97.1539 31.034C95.4078 32.8186 94.5346 35.2806 94.7661 37.7666V38.0333C94.4876 40.4715 95.298 42.9085 96.9811 44.6944C98.6643 46.4803 101.049 47.4336 103.499 47.2999ZM123.033 47.2999L121.433 43.4999H112.533L110.933 47.4333H106.066L114.133 28.4999H120.133L128.166 47.2999H123.033ZM141.665 47.3H146.999L147.165 28.3667H142.499V38.3667V40.6333L141.232 38.5L134.565 28.5H129.032V47.4333H133.499V36.9667V34.7667L134.699 36.8333L141.665 47.3ZM120.167 39.6999L118.367 35.2999L117.167 32.3666L115.967 35.2999L114.234 39.6999H120.167ZM73.1335 32.5H78.4001C78.9905 32.4339 79.5812 32.621 80.0259 33.0149C80.4706 33.4088 80.7277 33.9726 80.7335 34.5666C80.7499 35.1679 80.4993 35.7456 80.0491 36.1445C79.5988 36.5433 78.995 36.7223 78.4001 36.6333H73.1335V32.5Z" fill="#296DB6"/>
<path id="Shape_2" fill-rule="evenodd" clip-rule="evenodd" d="M160.5 64.0334H150.733C149.059 63.839 147.384 64.3819 146.143 65.521C144.901 66.66 144.216 68.2826 144.266 69.9667C144.165 71.5231 144.763 73.0435 145.898 74.1136C147.032 75.1838 148.585 75.6921 150.133 75.5H154.433C155.108 75.3644 155.798 75.6492 156.181 76.2213C156.564 76.7934 156.564 77.54 156.181 78.1121C155.798 78.6843 155.108 78.969 154.433 78.8334H144.8V82.8334H154.366C157.014 83.0783 159.498 81.5223 160.433 79.0334V85.3667C158.612 86.4922 156.506 87.0707 154.366 87.0334H102.3L98.4329 82.1667V87.0334H86.9996V80.1667C85.3807 80.6675 83.6941 80.9149 81.9996 80.9H80.1329V87.0334H63.2996L60.4996 82.9667L57.6329 87.0334H30.0996V59.8334H57.6996L60.4996 63.8334L63.3663 59.8334H160.5V64.0334ZM158.7 68.0333H150.5C149.826 67.8977 149.135 68.1824 148.753 68.7546C148.37 69.3267 148.37 70.0733 148.753 70.6454C149.135 71.2176 149.826 71.5023 150.5 71.3667H154.867C157.173 71.1295 159.373 72.3905 160.334 74.5V64.1667L158.7 68.0333ZM49.5323 68.0334H38.9656V71.3667H49.3323V75.3001H38.9656V78.6334H49.5323V82.6334H34.4323V64.0334H49.5323V68.0334ZM60.499 76.8334L65.0323 82.8334L70.7656 82.9667L63.1656 73.5001L70.6323 64.0334H65.099L60.499 69.9667L55.9323 64.1001H50.2656L57.8323 73.5001L50.499 82.8334H55.799L60.499 76.8334ZM81.701 76.6334H76.0344V82.8334H71.5677V64.0334H81.9344C83.6825 63.8472 85.425 64.4326 86.7059 65.6367C87.9869 66.8408 88.6789 68.5438 88.601 70.3001C88.6587 72.0802 87.9438 73.7984 86.6405 75.0123C85.3372 76.2262 83.5726 76.8173 81.801 76.6334H81.701ZM97.4004 76.1667L103 82.8333H108.8L102.5 75.9C104.62 75.6499 106.446 74.288 107.289 72.3271C108.132 70.3663 107.865 68.1045 106.589 66.3938C105.312 64.6831 103.22 63.7833 101.1 64.0333H90.9004V82.8333H95.3337V76.1667H97.4004ZM124.932 68.0334H114.465V71.3667H124.765V75.3001H114.465V78.6334H125.032V82.6334H109.865V64.0334H125.032L124.932 68.0334ZM127.434 82.8334H137.168C138.823 82.9671 140.457 82.3887 141.66 81.2431C142.863 80.0976 143.521 78.4936 143.468 76.8334C143.552 75.2927 142.943 73.7949 141.808 72.7499C140.672 71.7049 139.13 71.222 137.601 71.4334H133.234C132.559 71.5691 131.869 71.2843 131.487 70.7121C131.104 70.14 131.104 69.3935 131.487 68.8213C131.869 68.2492 132.559 67.9644 133.234 68.1001H141.334L143.134 64.1001H133.368C131.706 63.9075 130.042 64.4418 128.803 65.5659C127.564 66.6899 126.871 68.2941 126.901 69.9667C126.8 71.5231 127.398 73.0435 128.533 74.1137C129.667 75.1838 131.22 75.6921 132.768 75.5001H137.168C137.843 75.3644 138.533 75.6492 138.916 76.2213C139.298 76.7935 139.298 77.54 138.916 78.1121C138.533 78.6843 137.843 78.9691 137.168 78.8334H127.434V82.8334ZM100.698 68.0334H95.4316V72.1667H100.698C101.293 72.2557 101.897 72.0767 102.347 71.6778C102.798 71.279 103.048 70.7013 103.032 70.1C103.037 69.5024 102.783 68.9319 102.335 68.5356C101.888 68.1394 101.291 67.9562 100.698 68.0334ZM76.1315 68.0333H81.5315C82.8018 68.0333 83.8315 69.0631 83.8315 70.3333C83.8315 71.6036 82.8018 72.6333 81.5315 72.6333H76.1315V68.0333Z" fill="#296DB6"/>
</g>
</g>
</svg>
