<svg width="161" height="107" viewBox="0 0 161 107" fill="none" xmlns="http://www.w3.org/2000/svg">
<rect x="0.5" y="0.166626" width="160" height="106.667" rx="4" fill="#DFE3E8"/>
<path d="M129.906 56.2746L103.49 52.1351L106.992 67.8759L129.906 56.2746Z" fill="#D12053"/>
<path d="M129.906 56.2746L110.001 28.6187L103.495 52.1402L129.906 56.2746Z" fill="#E2136E"/>
<path d="M102.878 51.8213L82.021 25.1666L109.333 28.4293L102.878 51.8213Z" fill="#D12053"/>
<path d="M93.3783 40.6832L81.7969 29.7693H84.8454L93.3783 40.6832Z" fill="#9E1638"/>
<path d="M135.54 42.8302L130.638 56.1252L122.693 45.1365L135.54 42.8302Z" fill="#D12053"/>
<path d="M110.076 67.0789L129.308 59.353L130.115 56.8972L110.076 67.0789Z" fill="#E2136E"/>
<path d="M94.6934 81.6591L102.932 52.7578L107.112 71.5621L94.6934 81.6591Z" fill="#9E1638"/>
<path d="M136.307 42.9348L134.284 48.4242L141.577 48.3046L136.307 42.9348ZM18.5 45.1365C18.8537 45.1664 19.2123 45.2312 19.5909 45.2312C19.9695 45.2312 20.2783 45.1664 20.6818 45.1365V56.8275C21.8325 54.8699 23.282 53.5798 25.414 53.5798C29.2695 53.5798 30.9233 57.3954 30.9233 60.9022C30.9233 65.1014 28.6817 69.1213 24.7515 69.1213C23.9646 69.1386 23.188 68.9402 22.5058 68.5477C21.8235 68.1552 21.2617 67.5836 20.881 66.8947C20.2235 67.4725 19.6407 68.1649 19.0181 68.7925H18.5199L18.5 45.1365ZM20.632 62.3318C20.632 65.739 22.0765 68.1151 24.4526 68.1151C27.536 68.1151 28.5273 63.9707 28.5273 61.0317C28.5273 57.6196 27.4015 54.9347 24.7316 54.9048C21.6133 54.8799 20.632 58.571 20.632 62.3368V62.3318Z" fill="#E2136E"/>
<path d="M40.9804 52.6981L38.6592 55.6869C40.841 58.8749 43.1025 61.9981 45.2942 65.226L47.5059 68.7128V68.8872C46.9629 68.8523 46.4698 68.7826 46.0115 68.7826C45.5532 68.7826 44.9754 68.8523 44.4872 68.8872C43.8845 67.7714 43.2868 66.7403 42.6043 65.7291L36.6268 56.8873C36.4923 56.7479 36.1685 56.6383 36.1685 56.7827V68.8872C35.7302 68.8523 35.3466 68.7826 34.9681 68.7826C34.5895 68.7826 34.1511 68.8523 33.7676 68.8872V45.1365C34.1511 45.1664 34.5646 45.2412 34.9681 45.2412C35.3715 45.2412 35.7302 45.1664 36.1685 45.1365V55.8562C36.1685 56.0654 36.577 55.926 36.846 55.647C37.3648 55.1091 37.8506 54.5402 38.3005 53.9434L45.0202 45.1266C45.3739 45.1565 45.7276 45.2312 46.1111 45.2312C46.4947 45.2312 46.7886 45.1565 47.1771 45.1266L40.9804 52.6981ZM59.0574 66.2123C59.0574 67.4476 58.9777 68.0752 60.5867 67.6668V68.3592C60.3238 68.4909 60.0485 68.596 59.7648 68.673C58.3451 68.9569 57.1695 68.7029 56.9504 66.8449L56.7063 67.1188C56.2317 67.7407 55.6195 68.2442 54.9178 68.5899C54.216 68.9356 53.4438 69.1141 52.6615 69.1113C50.7288 69.1113 49.0351 67.5871 49.0351 65.2509C49.0351 61.6494 51.5258 61.1762 54.0811 60.703C56.243 60.2945 56.9802 60.1052 56.9802 58.5859C56.9802 56.2448 55.8345 54.8899 53.7873 54.8899C53.0881 54.8762 52.4016 55.0776 51.8207 55.467C51.2398 55.8563 50.7925 56.4147 50.5395 57.0667H50.2406V55.3133C51.4698 54.2438 53.0305 53.6315 54.659 53.5798C57.5232 53.5798 59.0823 55.3133 59.0823 58.8848L59.0574 66.2123ZM56.8756 60.9969L55.9143 61.2161C54.0562 61.6245 51.2717 61.9383 51.2717 64.8225C51.2717 66.815 52.268 67.8112 53.9417 67.8112C54.8075 67.7046 55.5992 67.2695 56.1534 66.5958C56.3526 66.3667 56.9005 65.8287 56.9005 65.5996L56.8756 60.9969ZM63.9241 65.7938C64.5717 67.0342 65.7771 68.145 67.0623 68.145C67.7956 68.1076 68.4856 67.7861 68.9858 67.2486C69.4861 66.7111 69.7574 65.9999 69.7422 65.2658C69.7422 61.0019 63.2915 63.7714 63.2915 58.2522C63.2915 55.2236 65.284 53.5848 67.7398 53.5848C68.8257 53.5609 69.8966 53.8438 70.8281 54.4017C70.5591 55.1325 70.3427 55.8816 70.1806 56.6433H69.9315C69.5729 55.6022 68.6214 54.5561 67.6102 54.5561C66.2454 54.5561 65.1196 55.4776 65.1196 57.1862C65.1196 61.226 71.5703 59.0741 71.5703 64.1301C71.5703 67.5124 68.9502 69.1113 66.5393 69.1113C65.3319 69.1104 64.1498 68.7648 63.1321 68.1151C63.3766 67.3572 63.568 66.5833 63.7049 65.7988L63.9241 65.7938ZM75.2465 45.1365C75.6101 45.1664 75.9638 45.2312 76.3424 45.2312C76.721 45.2312 77.0298 45.1664 77.4383 45.1365V56.6383C78.3947 54.7105 79.894 53.5798 81.8367 53.5798C85.0048 53.5798 86.2352 55.7516 86.2352 59.7366V68.8872C85.8217 68.8523 85.5029 68.7925 85.1393 68.7925C84.7757 68.7925 84.4021 68.8573 84.0434 68.8872V60.4589C84.0434 56.972 83.3411 55.2136 81.0148 55.2136C78.5541 55.2136 77.4383 56.987 77.4383 60.2696V68.8872C77.0298 68.8523 76.706 68.7925 76.3424 68.7925C75.9788 68.7925 75.6151 68.8573 75.2465 68.8872V45.1365Z" fill="#231F20"/>
</svg>
