<svg width="161" height="107" viewBox="0 0 161 107" fill="none" xmlns="http://www.w3.org/2000/svg">
<rect x="0.5" y="0.166626" width="160" height="106.667" rx="4" fill="#DFE3E8"/>
<path d="M114.8 62.0666C110.067 80.9893 90.8957 92.497 71.9701 87.7756C53.0446 83.0541 41.5251 63.8898 46.235 44.9613C50.9448 26.0329 70.1022 14.5017 89.0335 19.2C98.1395 21.4598 105.973 27.2486 110.806 35.2899C115.64 43.3312 117.077 52.9648 114.8 62.0666Z" fill="#F7941F"/>
<path fill-rule="evenodd" clip-rule="evenodd" d="M96.0992 48.4667C96.7992 43.7667 93.1992 41.2333 88.2992 39.5333L89.8992 33.1667L86.0325 32.2L84.4659 38.4L81.3659 37.6667L82.9325 31.4333L79.0325 30.4667L77.4659 36.8333L74.9659 36.2667L69.5992 34.9333L68.5659 39.0667C68.5659 39.0667 71.4325 39.7333 71.3992 39.7667C72.5164 39.9058 73.3168 40.9136 73.1992 42.0333L71.3992 49.3H71.3659L68.8325 59.3C68.718 59.6539 68.4674 59.9478 68.136 60.1166C67.8045 60.2855 67.4195 60.3155 67.0659 60.2L64.2325 59.5L62.3325 63.9333L67.3659 65.2L70.1325 65.9333L68.5325 72.3667L72.3992 73.3333L73.9992 66.9667L77.0659 67.7667L75.4992 74.1L79.3659 75.0667L80.9992 68.6333C87.6659 69.9 92.5659 69.3667 94.6659 63.4C95.5757 61.7006 95.7054 59.6906 95.0216 57.8884C94.3377 56.0862 92.9073 54.6681 91.0992 54C93.8435 53.4251 95.8719 51.0972 96.0659 48.3L96.0992 48.4667ZM87.1662 60.9C86.069 65.2891 79.1745 63.4909 76.0144 62.6667C75.7186 62.5895 75.4555 62.5209 75.2329 62.4667L77.3329 53.9C77.6043 53.9687 77.9373 54.0441 78.3149 54.1297C81.6018 54.8743 88.2725 56.3854 87.1662 60.9ZM78.9842 50.1628C81.58 50.8581 87.3555 52.4049 88.3644 48.4H88.4311C89.4404 44.3332 83.9466 43.0685 81.3193 42.4637C80.9963 42.3894 80.7167 42.325 80.4978 42.2667L78.3644 50C78.5412 50.0442 78.7497 50.1 78.9842 50.1628Z" fill="white"/>
</svg>
