<svg width="161" height="107" viewBox="0 0 161 107" fill="none" xmlns="http://www.w3.org/2000/svg">
<rect x="0.5" y="0.166626" width="160" height="106.667" rx="4" fill="#DFE3E8"/>
<path d="M68.3016 84.5667L69.4682 77.2333H66.8682H54.6016L63.1349 23.0333C63.1577 22.8654 63.2406 22.7115 63.3682 22.6C63.5022 22.4965 63.6656 22.4381 63.8349 22.4333H84.5349C91.4349 22.4333 96.1682 23.8667 98.6682 26.7C99.7744 27.8884 100.545 29.3494 100.902 30.9333C101.29 32.8584 101.29 34.8417 100.902 36.7667V38.4333L102.068 39.1C102.956 39.5427 103.758 40.141 104.435 40.8667C105.454 42.0967 106.112 43.5852 106.335 45.1667C106.585 47.2341 106.495 49.3284 106.068 51.3667C105.629 53.8427 104.76 56.2229 103.502 58.4C102.485 60.1455 101.11 61.6563 99.4682 62.8333C97.8157 63.9602 95.976 64.7841 94.0349 65.2667C91.8558 65.8164 89.6155 66.0852 87.3682 66.0667H85.7349C84.5901 66.0668 83.4816 66.4678 82.6016 67.2C81.717 67.9454 81.136 68.9888 80.9682 70.1334V70.8L78.9349 83.7333V84.2334C78.959 84.3206 78.959 84.4128 78.9349 84.5H78.7349L68.3016 84.5667Z" fill="#253D80"/>
<path d="M103.167 37.1L102.967 38.3333C100.234 52.3333 90.8673 57.2 78.934 57.2H72.8673C71.4077 57.1982 70.1636 58.2585 69.934 59.7L66.834 79.4333L65.934 85.0333C65.8664 85.4817 65.9965 85.9374 66.2906 86.2827C66.5846 86.6279 67.0139 86.8287 67.4673 86.8333H78.2673C79.5479 86.8321 80.637 85.8987 80.834 84.6333V84.1L82.8673 71.2V70.5C83.0492 69.2398 84.1274 68.3035 85.4007 68.3H87.1673C97.6007 68.3 105.801 64.0666 108.167 51.6333C109.448 47.3838 108.658 42.7796 106.034 39.2C105.201 38.346 104.233 37.6364 103.167 37.1V37.1Z" fill="#189BD7"/>
<path d="M100.301 35.9667L99.0346 35.6333L97.6346 35.3667C95.8694 35.1027 94.086 34.9801 92.3013 35H76.0346C75.6547 34.9896 75.2777 35.0696 74.9346 35.2333C74.1617 35.5952 73.6229 36.3219 73.5013 37.1667L70.168 59.0667V59.7C70.3976 58.2585 71.6416 57.1982 73.1013 57.2H79.168C91.1013 57.2 100.468 52.3333 103.201 38.3333L103.401 37.1C102.683 36.729 101.936 36.4168 101.168 36.1667L100.301 35.9667Z" fill="#242E65"/>
<path d="M73.5013 37.1666C73.6229 36.3219 74.1617 35.5952 74.9346 35.2333C75.2776 35.0695 75.6546 34.9895 76.0346 35H92.3013C94.086 34.9801 95.8694 35.1027 97.6346 35.3666L99.0346 35.6333L100.301 35.9666L100.935 36.1666C101.703 36.4168 102.45 36.7289 103.168 37.1C104.251 32.9354 103.258 28.5039 100.501 25.2C97.1679 21.6666 91.7013 20.1666 84.5679 20.1666H63.8346C62.3749 20.1649 61.1309 21.2251 60.9013 22.6666L52.2679 77.3666C52.1906 77.8825 52.3409 78.4065 52.6798 78.803C53.0188 79.1994 53.513 79.4294 54.0346 79.4333H66.8346L70.1679 59.0666L73.5013 37.1666Z" fill="#253D80"/>
</svg>
