<svg width="161" height="107" viewBox="0 0 161 107" fill="none" xmlns="http://www.w3.org/2000/svg">
<rect x="0.5" y="0.166626" width="160" height="106.667" rx="4" fill="#DFE3E8"/>
<path fill-rule="evenodd" clip-rule="evenodd" d="M101.669 59.0666C101.689 53.9842 97.4972 51.7889 94.2442 50.0854C92.1849 49.0069 90.5019 48.1255 90.5019 46.8333C90.5019 45.7333 91.5685 44.5666 93.8352 44.2666C96.5329 43.9997 99.2523 44.4722 101.702 45.6333L103.102 38.9666C100.714 38.0712 98.1855 37.6084 95.6352 37.6C87.7685 37.6 82.3019 41.8 82.3019 47.8C82.3019 52.2333 86.2685 54.7 89.2685 56.1666C92.2685 57.6333 93.4352 58.6666 93.4019 60C93.4019 62.0666 90.9352 63 88.6352 63.0333C85.798 63.0698 82.9985 62.3814 80.5019 61.0333L79.0685 67.7C81.8935 68.8028 84.9027 69.3571 87.9352 69.3333C96.3019 69.3333 101.802 65.2 101.835 58.8L101.669 59.0666ZM80.0343 38.1333L73.3676 68.9667H65.3676L72.0343 38.1333H80.0343ZM113.567 58.1333L117.767 46.5666L120.2 58.1333H113.567ZM129.869 69.0666H122.469L121.502 64.4666H111.469L109.835 69.0666H101.435L113.402 40.5C113.954 39.1408 115.269 38.2467 116.735 38.2333H123.402L129.869 69.0666ZM55.868 68.8667L68.8013 38.0333H60.1347L51.8347 59L48.5013 41.1667C48.2063 39.3545 46.6374 38.0259 44.8013 38.0333H31.2347L31.0347 38.9333C33.7558 39.4657 36.3989 40.3393 38.9013 41.5333C39.9672 42.0345 40.6895 43.0609 40.8013 44.2333L47.168 68.8667H55.868Z" fill="#2A2A6C"/>
</svg>
