<svg width="161" height="107" viewBox="0 0 161 107" fill="none" xmlns="http://www.w3.org/2000/svg">
<rect x="0.5" y="0.166626" width="160" height="106.667" rx="4" fill="#DFE3E8"/>
<path d="M91.4688 22.6979H78.2697H57.3438V42.1979H93.9062V31.1792V22.6979H91.4688Z" fill="#A9E47F"/>
<path d="M55.5156 88.096C55.9145 88.3673 56.3861 88.5117 56.8684 88.5104H74.9669C75.3956 88.5143 75.8171 88.4004 76.1856 88.1813L92.5169 78.7604C92.8878 78.5444 93.1955 78.2349 93.4094 77.8628C93.6232 77.4907 93.7357 77.069 93.7356 76.6398C93.7346 76.2156 93.6211 75.7992 93.4066 75.4332C93.2477 75.1551 93.0353 74.9113 92.7816 74.7158C92.5279 74.5203 92.238 74.377 91.9286 74.2943C91.6192 74.2115 91.2964 74.191 90.979 74.2337C90.6616 74.2765 90.3558 74.3818 90.0794 74.5435L79.7992 80.4667C79.5728 80.6977 79.3026 80.8814 79.0044 81.0069C78.7062 81.1324 78.386 81.1974 78.0625 81.1979C78.386 81.1974 78.7062 81.1324 79.0044 81.0069C79.3026 80.8814 79.5728 80.6977 79.7992 80.4667L79.7809 80.4764L79.7566 80.5008L79.7809 80.4764L79.7992 80.4667C80.135 80.1241 80.3622 79.6901 80.4525 79.219C80.5427 78.7479 80.492 78.2606 80.3065 77.8182C80.1211 77.3758 79.8093 76.998 79.4101 76.732C79.011 76.466 78.5422 76.3237 78.0625 76.3229H68.3125L67.7604 75.9573C65.7584 74.6226 63.4061 73.9104 61 73.9104C58.5939 73.9104 56.2416 74.6226 54.2396 75.9573L53.6875 76.3229H52.4688V86.0729L55.5156 88.096Z" fill="#EFEBE5"/>
<path d="M52.4688 86.0729V76.3229V73.8854H45.1562V88.5104H52.4688V86.0729Z" fill="#006DF0"/>
<path d="M108.531 20.2604V29.9945V32.4479H115.844V17.8229H108.531V20.2604Z" fill="#006DF0"/>
<path d="M91.4688 49.5104H59.7812V71.4479H91.4688V49.5104Z" fill="#FFE2BD"/>
<path d="M78.0625 49.5104H73.1875V56.8229H78.0625V49.5104Z" fill="#FFAF46"/>
<path d="M104.17 18.08C103.832 17.9109 103.459 17.8229 103.081 17.8229H85.2188C84.6651 17.8226 84.1279 18.0109 83.6954 18.3567L78.2695 22.6979H90.2498L87.2359 25.7118C86.7424 26.2055 86.4653 26.8749 86.4653 27.5729C86.4653 28.2708 86.7424 28.9403 87.2359 29.4339L87.2432 29.4412C87.7241 29.9217 88.3723 30.1976 89.052 30.211C89.7317 30.2244 90.3902 29.9743 90.8897 29.5131L93.9061 26.4663V31.1792L94.0097 31.2291L95.4868 31.83C96.8881 32.4002 98.4029 32.6365 99.9113 32.5201C101.42 32.4038 102.88 31.938 104.178 31.1597L106.094 30.0104L108.531 29.9945V20.2604L104.17 18.08Z" fill="#EFEBE5"/>
<path d="M75.625 71.4479H91.4688V56.8229C91.4688 64.9068 84.3829 71.4479 75.625 71.4479Z" fill="#FFDAAA"/>
<path d="M80.5 42.1979H93.9062V28.7916C93.9062 34.8549 86.5633 42.1979 80.5 42.1979Z" fill="#91DC5A"/>
<path d="M115.844 16.6041H108.531C108.208 16.6041 107.898 16.7325 107.669 16.9611C107.441 17.1896 107.312 17.4996 107.312 17.8229V18.2884L104.715 16.9893C104.208 16.7364 103.648 16.6046 103.081 16.6041H85.219C84.3896 16.6049 83.585 16.8877 82.9375 17.4061L77.8419 21.4791H57.3438C57.0205 21.4791 56.7105 21.6075 56.482 21.8361C56.2534 22.0646 56.125 22.3746 56.125 22.6979V42.1979C56.125 42.5211 56.2534 42.8311 56.482 43.0597C56.7105 43.2882 57.0205 43.4166 57.3438 43.4166H93.9062C94.2295 43.4166 94.5395 43.2882 94.768 43.0597C94.9966 42.8311 95.125 42.5211 95.125 42.1979V32.9939C96.6914 33.612 98.3788 33.8622 100.057 33.7253C101.736 33.5883 103.36 33.0679 104.806 32.2041L106.435 31.2291H107.312V32.4479C107.312 32.7711 107.441 33.0811 107.669 33.3097C107.898 33.5382 108.208 33.6666 108.531 33.6666H115.844C116.167 33.6666 116.477 33.5382 116.706 33.3097C116.934 33.0811 117.062 32.7711 117.062 32.4479V17.8229C117.062 17.4996 116.934 17.1896 116.706 16.9611C116.477 16.7325 116.167 16.6041 115.844 16.6041ZM58.5625 40.9791V23.9166H87.726L86.3597 25.2841C85.6937 25.9736 85.3252 26.8972 85.3335 27.8559C85.3419 28.8145 85.7264 29.7316 86.4043 30.4095C87.0822 31.0874 87.9992 31.4719 88.9579 31.4802C89.9165 31.4885 90.8401 31.12 91.5297 30.454L92.6875 29.2962V40.9791H58.5625ZM106.086 28.7916C105.868 28.7926 105.653 28.8528 105.466 28.9659L103.551 30.114C102.415 30.7926 101.137 31.1988 99.8179 31.3007C98.4985 31.4026 97.1733 31.1975 95.9464 30.7014L95.125 30.3675V26.8587L96.6728 25.3109L97.3017 25.5205C99.0538 26.1006 100.946 26.1006 102.698 25.5205L104.039 25.0732C104.346 24.9711 104.6 24.7511 104.745 24.4618C104.89 24.1724 104.914 23.8374 104.812 23.5303C104.709 23.2232 104.49 22.9693 104.2 22.8244C103.911 22.6795 103.576 22.6555 103.269 22.7576L101.928 23.2061C100.677 23.6204 99.3255 23.6204 98.0744 23.2061L96.7337 22.7576C96.519 22.6862 96.2887 22.6759 96.0685 22.728C95.8483 22.7801 95.6469 22.8925 95.487 23.0525L93.0495 25.49L89.8064 28.7307C89.5778 28.9592 89.2679 29.0875 88.9447 29.0875C88.6216 29.0875 88.3116 28.9592 88.0831 28.7307C87.8546 28.5021 87.7262 28.1922 87.7262 27.869C87.7262 27.5459 87.8546 27.2359 88.0831 27.0074L92.8191 22.2701C93.0411 22.0402 93.164 21.7324 93.1612 21.4128C93.1584 21.0933 93.0302 20.7876 92.8043 20.5616C92.5783 20.3357 92.2726 20.2075 91.9531 20.2047C91.6335 20.2019 91.3257 20.3248 91.0958 20.5468L90.1635 21.4791H81.7443L84.4573 19.3085C84.6735 19.1356 84.9422 19.0415 85.219 19.0416H103.081C103.27 19.0423 103.456 19.086 103.626 19.1696L107.312 21.0136V28.7831L106.086 28.7916ZM114.625 31.2291H109.75V19.0416H114.625V31.2291Z" fill="black"/>
<path d="M75.625 28.7916C75.9482 28.7916 76.2582 28.92 76.4868 29.1486C76.7153 29.3771 76.8438 29.6871 76.8438 30.0104H79.2812C79.2781 29.2569 79.0423 28.5227 78.606 27.9084C78.1696 27.2941 77.5542 26.8295 76.8438 26.5784V25.1354H74.4062V26.5784C73.5937 26.8646 72.9087 27.4291 72.4725 28.1719C72.0363 28.9148 71.8771 29.788 72.0231 30.637C72.1691 31.486 72.6108 32.2559 73.2701 32.8105C73.9293 33.365 74.7636 33.6683 75.625 33.6666C75.866 33.6666 76.1017 33.7381 76.3021 33.872C76.5025 34.0059 76.6587 34.1963 76.751 34.419C76.8432 34.6417 76.8674 34.8867 76.8203 35.1231C76.7733 35.3596 76.6572 35.5767 76.4868 35.7472C76.3163 35.9176 76.0992 36.0337 75.8628 36.0807C75.6264 36.1277 75.3813 36.1036 75.1586 36.0114C74.9359 35.9191 74.7456 35.7629 74.6116 35.5625C74.4777 35.3621 74.4062 35.1264 74.4062 34.8854H71.9688C71.9719 35.6389 72.2077 36.373 72.644 36.9874C73.0804 37.6017 73.6958 38.0662 74.4062 38.3174V39.7604H76.8438V38.3174C77.6563 38.0312 78.3413 37.4667 78.7775 36.7238C79.2137 35.981 79.3729 35.1077 79.2269 34.2587C79.0809 33.4097 78.6392 32.6398 77.9799 32.0853C77.3207 31.5308 76.4864 31.2275 75.625 31.2291C75.3018 31.2291 74.9918 31.1007 74.7632 30.8722C74.5347 30.6436 74.4062 30.3336 74.4062 30.0104C74.4062 29.6871 74.5347 29.3771 74.7632 29.1486C74.9918 28.92 75.3018 28.7916 75.625 28.7916Z" fill="black"/>
<path d="M68.3125 31.2291H65.875C65.5518 31.2291 65.2418 31.3575 65.0132 31.5861C64.7847 31.8146 64.6562 32.1246 64.6562 32.4479C64.6562 32.7711 64.7847 33.0811 65.0132 33.3097C65.2418 33.5382 65.5518 33.6666 65.875 33.6666H68.3125C68.6357 33.6666 68.9457 33.5382 69.1743 33.3097C69.4028 33.0811 69.5312 32.7711 69.5312 32.4479C69.5312 32.1246 69.4028 31.8146 69.1743 31.5861C68.9457 31.3575 68.6357 31.2291 68.3125 31.2291Z" fill="black"/>
<path d="M85.375 31.2291H82.9375C82.6143 31.2291 82.3043 31.3575 82.0757 31.5861C81.8472 31.8146 81.7188 32.1246 81.7188 32.4479C81.7188 32.7711 81.8472 33.0811 82.0757 33.3097C82.3043 33.5382 82.6143 33.6666 82.9375 33.6666H85.375C85.6982 33.6666 86.0082 33.5382 86.2368 33.3097C86.4653 33.0811 86.5938 32.7711 86.5938 32.4479C86.5938 32.1246 86.4653 31.8146 86.2368 31.5861C86.0082 31.3575 85.6982 31.2291 85.375 31.2291Z" fill="black"/>
<path d="M94.4644 74.8275C94.2258 74.4098 93.9069 74.0436 93.526 73.7498C93.1452 73.4561 92.7099 73.2407 92.2453 73.1161C91.7808 72.9914 91.2961 72.96 90.8194 73.0236C90.3426 73.0873 89.8832 73.2447 89.4676 73.4868L81.6347 77.9962C81.4598 77.1783 81.0099 76.445 80.3598 75.9187C79.7098 75.3924 78.8989 75.1049 78.0625 75.1041H68.6781L68.4344 74.9408C66.2552 73.4825 63.6952 72.6973 61.073 72.683C58.4509 72.6687 55.8825 73.4259 53.6875 74.8604V73.8854C53.6875 73.5621 53.5591 73.2521 53.3305 73.0236C53.102 72.795 52.792 72.6666 52.4688 72.6666H45.1562C44.833 72.6666 44.523 72.795 44.2945 73.0236C44.0659 73.2521 43.9375 73.5621 43.9375 73.8854V88.5104C43.9375 88.8336 44.0659 89.1436 44.2945 89.3722C44.523 89.6007 44.833 89.7291 45.1562 89.7291H52.4688C52.792 89.7291 53.102 89.6007 53.3305 89.3722C53.5591 89.1436 53.6875 88.8336 53.6875 88.5104V88.3446L54.8258 89.1003C55.4282 89.51 56.1399 89.7291 56.8684 89.7291H74.9669C75.6091 89.7344 76.2407 89.566 76.795 89.2416L93.1263 79.8207C93.6821 79.4974 94.1434 79.0339 94.4642 78.4766C94.785 77.9193 94.954 77.2877 94.9544 76.6446C94.9541 76.0063 94.7851 75.3794 94.4644 74.8275ZM51.25 87.2916H46.375V75.1041H51.25V87.2916ZM91.9075 77.7049L75.558 87.1368C75.3788 87.2415 75.1744 87.2951 74.9669 87.2916H56.8684C56.626 87.2921 56.3891 87.2185 56.1896 87.0808L53.6875 85.4196V77.5416C53.9277 77.5418 54.1626 77.471 54.3627 77.3381L54.916 76.9725C56.7164 75.7675 58.8341 75.1242 61.0006 75.1242C63.1671 75.1242 65.2848 75.7675 67.0852 76.9725L67.6373 77.3381C67.8374 77.471 68.0723 77.5418 68.3125 77.5416H78.0625C78.3857 77.5416 78.6957 77.67 78.9243 77.8986C79.1528 78.1271 79.2812 78.4371 79.2812 78.7604C79.2812 79.0836 79.1528 79.3936 78.9243 79.6222C78.6957 79.8507 78.3857 79.9791 78.0625 79.9791H70.75C70.4268 79.9791 70.1168 80.1075 69.8882 80.3361C69.6597 80.5646 69.5312 80.8746 69.5312 81.1979C69.5312 81.5211 69.6597 81.8311 69.8882 82.0597C70.1168 82.2882 70.4268 82.4166 70.75 82.4166H78.0625C78.9544 82.4137 79.8139 82.0822 80.4768 81.4855L90.6985 75.5916C90.8342 75.5116 90.9846 75.4596 91.1408 75.4387C91.2969 75.4178 91.4557 75.4283 91.6077 75.4697C91.7639 75.5111 91.9103 75.5833 92.0382 75.6821C92.166 75.7809 92.2729 75.9043 92.3523 76.045C92.4591 76.2251 92.5159 76.4304 92.5169 76.6397C92.5172 76.8551 92.4611 77.0667 92.3542 77.2536C92.2473 77.4405 92.0933 77.5961 91.9075 77.7049Z" fill="black"/>
<path d="M91.4688 48.2916H59.7812C59.458 48.2916 59.148 48.42 58.9195 48.6486C58.6909 48.8771 58.5625 49.1871 58.5625 49.5104V71.4479C58.5625 71.7711 58.6909 72.0811 58.9195 72.3097C59.148 72.5382 59.458 72.6666 59.7812 72.6666H91.4688C91.792 72.6666 92.102 72.5382 92.3305 72.3097C92.5591 72.0811 92.6875 71.7711 92.6875 71.4479V49.5104C92.6875 49.1871 92.5591 48.8771 92.3305 48.6486C92.102 48.42 91.792 48.2916 91.4688 48.2916ZM76.8438 50.7291V55.6041H74.4062V50.7291H76.8438ZM90.25 70.2291H61V50.7291H71.9688V56.8229C71.9688 57.1461 72.0972 57.4561 72.3257 57.6847C72.5543 57.9132 72.8643 58.0416 73.1875 58.0416H78.0625C78.3857 58.0416 78.6957 57.9132 78.9243 57.6847C79.1528 57.4561 79.2812 57.1461 79.2812 56.8229V50.7291H90.25V70.2291Z" fill="black"/>
<path d="M68.3125 62.9166H63.4375C63.1143 62.9166 62.8043 63.045 62.5757 63.2736C62.3472 63.5021 62.2188 63.8121 62.2188 64.1354C62.2188 64.4586 62.3472 64.7686 62.5757 64.9972C62.8043 65.2257 63.1143 65.3541 63.4375 65.3541H68.3125C68.6357 65.3541 68.9457 65.2257 69.1743 64.9972C69.4028 64.7686 69.5312 64.4586 69.5312 64.1354C69.5312 63.8121 69.4028 63.5021 69.1743 63.2736C68.9457 63.045 68.6357 62.9166 68.3125 62.9166Z" fill="black"/>
<path d="M73.1875 62.9166H71.9688C71.6455 62.9166 71.3355 63.045 71.107 63.2736C70.8784 63.5021 70.75 63.8121 70.75 64.1354C70.75 64.4586 70.8784 64.7686 71.107 64.9972C71.3355 65.2257 71.6455 65.3541 71.9688 65.3541H73.1875C73.5107 65.3541 73.8207 65.2257 74.0493 64.9972C74.2778 64.7686 74.4062 64.4586 74.4062 64.1354C74.4062 63.8121 74.2778 63.5021 74.0493 63.2736C73.8207 63.045 73.5107 62.9166 73.1875 62.9166Z" fill="black"/>
<path d="M68.3125 66.5729H63.4375C63.1143 66.5729 62.8043 66.7013 62.5757 66.9298C62.3472 67.1584 62.2188 67.4684 62.2188 67.7916C62.2188 68.1149 62.3472 68.4249 62.5757 68.6534C62.8043 68.882 63.1143 69.0104 63.4375 69.0104H68.3125C68.6357 69.0104 68.9457 68.882 69.1743 68.6534C69.4028 68.4249 69.5312 68.1149 69.5312 67.7916C69.5312 67.4684 69.4028 67.1584 69.1743 66.9298C68.9457 66.7013 68.6357 66.5729 68.3125 66.5729Z" fill="black"/>
<path d="M73.1875 66.5729H71.9688C71.6455 66.5729 71.3355 66.7013 71.107 66.9298C70.8784 67.1584 70.75 67.4684 70.75 67.7916C70.75 68.1149 70.8784 68.4249 71.107 68.6534C71.3355 68.882 71.6455 69.0104 71.9688 69.0104H73.1875C73.5107 69.0104 73.8207 68.882 74.0493 68.6534C74.2778 68.4249 74.4062 68.1149 74.4062 67.7916C74.4062 67.4684 74.2778 67.1584 74.0493 66.9298C73.8207 66.7013 73.5107 66.5729 73.1875 66.5729Z" fill="black"/>
</svg>
