<svg width="1388" height="462" viewBox="0 0 1388 462" fill="none" xmlns="http://www.w3.org/2000/svg">
<path d="M5.59961 44.9987C184.6 -21.0673 314.6 -2.31007 399 25.7795C579.7 85.8395 609.9 207.9 775.5 223.885C851.3 231.185 879.2 209.009 1125.9 127.697C1254.6 85.2851 1359.4 54.3311 1425.6 35.3891" stroke="#ffffff33" stroke-miterlimit="10"/>
<path d="M5.2998 44.3519C104.2 11.8271 189 7.2995 260.8 13.0283C312.2 17.0939 355.6 26.4263 391.3 37.4219C556 88.4267 596 190.252 739.3 213.721C748.4 215.2 757.8 216.493 767.8 217.232C847.9 223.238 877.4 196.442 1116.4 127.05C1187.1 106.537 1249.2 93.6935 1306.6 79.3715C1354.6 67.3595 1395.2 55.7171 1426.6 46.8467" stroke="#ffffff33" stroke-miterlimit="10"/>
<path d="M5 43.7053C99.3 16.9093 181.8 17.6485 254 25.0405C304.7 30.3073 347.7 38.8081 383.5 49.0645C543.1 94.7101 586.3 187.202 731.6 207.53C740.7 208.824 750 210.025 759.9 210.58C844.4 215.2 875.8 184.523 1106.7 126.496C1179.1 108.293 1241.1 101.917 1302.9 89.4433C1353 79.2793 1395.3 67.4521 1427.5 58.4893" stroke="#ffffff33" stroke-miterlimit="10"/>
<path d="M4.7002 43.0583C94.4002 21.8987 174.6 27.8123 247.2 37.1447C297.2 43.5203 339.8 51.2819 375.7 60.7067C530.1 101.085 576.6 184.153 724 201.432C733 202.448 742.3 203.557 752.1 203.927C841 207.161 874.9 173.25 1097.2 125.849C1171.6 109.956 1233.1 110.048 1299.3 99.4223C1351.5 91.0139 1395.5 79.0943 1428.5 69.9467" stroke="#ffffff33" stroke-miterlimit="10"/>
<path d="M4.5 42.4117C89.7 26.8885 167.5 38.0689 240.5 49.2493C289.7 56.7337 331.9 63.7561 368.1 72.3493C517.1 107.738 566.9 181.196 716.5 195.241C725.5 196.073 734.8 197.459 744.3 197.274C837.6 194.687 874.4 162.809 1087.6 125.202C1164.1 111.712 1224.9 118.087 1295.7 109.402C1350 102.656 1395.7 90.6445 1429.5 81.4045" stroke="#ffffff33" stroke-miterlimit="10"/>
<path d="M4.2002 41.7649C84.8002 31.9705 160.3 48.3253 233.8 61.3537C282.3 69.9469 324.1 76.2301 360.4 83.9917C503.9 114.484 557.2 178.24 708.9 189.05C717.9 189.697 727.1 190.991 736.5 190.529C834.2 185.632 874.3 152.922 1078 124.463C1156.7 113.467 1216.8 125.941 1292.1 119.288C1348.5 114.299 1396 102.194 1430.5 92.8621" stroke="#ffffff33" stroke-miterlimit="10"/>
<path d="M3.90039 41.1179C79.9004 37.0523 153.1 58.4891 227 73.4579C274.8 83.1599 316.1 88.7963 352.6 95.6339C490.6 121.506 547.4 175.375 701.2 182.952C710.1 183.414 719.3 184.615 728.6 183.968C830.6 176.854 874.3 143.959 1068.3 124.001C1149.4 115.685 1208.6 134.072 1288.3 129.452C1346.8 126.034 1396 114.022 1431.3 104.597" stroke="#ffffff33" stroke-miterlimit="10"/>
<path d="M3.59961 40.4712C74.9996 42.042 145.9 68.6532 220.2 85.5624C267.3 96.2808 308.1 101.363 344.8 107.276C477.2 128.621 537.5 172.603 693.5 176.761C702.4 177.038 711.5 177.5 720.7 177.223C827.4 173.804 876.1 98.3136 1058.7 123.262C1141.5 134.534 1200.4 141.834 1284.7 139.247C1345.2 137.399 1396.2 125.387 1432.3 115.87" stroke="#ffffff33" stroke-miterlimit="10"/>
<path d="M3.2998 39.9167C70.1998 47.1239 138.7 78.7247 213.4 97.6667C259.8 109.402 300.1 113.929 337 118.919C463.7 135.92 527.8 166.228 685.9 170.663C694.8 170.94 703.8 171.032 712.9 170.57C824.1 165.304 878.3 91.1064 1049.1 122.615C1133.4 138.138 1192.3 152.275 1281.1 149.226C1343.6 147.101 1396.4 137.029 1433.3 127.42" stroke="#ffffff33" stroke-miterlimit="10"/>
<path d="M3 39.27C65.3 52.206 131.5 88.7964 206.6 109.771C252.3 122.522 292.1 126.588 329.2 130.561C450.2 143.405 517.8 167.152 678.2 164.472C687.1 164.287 696 164.472 705 163.918C820.6 156.71 880.3 85.7472 1039.4 121.968C1125.3 141.557 1184 157.357 1277.3 159.205C1342 160.499 1396.5 148.672 1434.1 138.877" stroke="#ffffff33" stroke-miterlimit="10"/>
<path d="M2.7002 38.6233C60.4002 57.1957 124.4 98.8681 199.9 121.876C244.9 135.551 284.1 139.339 321.6 142.204C436.9 151.074 508.2 164.564 670.7 158.281C679.5 157.912 688.4 157.912 697.3 157.172C817.3 147.932 882 81.9589 1029.9 121.321C1117.5 144.606 1176 165.119 1273.8 169.184C1340.5 171.956 1396.8 160.222 1435.2 150.427" stroke="#ffffff33" stroke-miterlimit="10"/>
<path d="M2.40039 37.9763C55.5004 62.2775 117.2 108.847 193.1 133.98C237.4 148.672 276.1 152.09 313.8 153.846C423.3 158.928 498.4 161.977 663 152.183C671.8 151.628 680.6 151.444 689.4 150.612C813.8 139.154 882.9 79.8335 1020.3 120.767C1109.7 147.378 1167.9 172.88 1270.2 179.256C1339 183.506 1397 171.956 1436.2 161.977" stroke="#ffffff33" stroke-miterlimit="10"/>
<path d="M2.2002 37.3296C50.8002 67.2672 110.2 118.734 186.4 146.084C230 161.7 268.4 161.885 306.1 165.488C409.4 175.468 488.7 159.482 655.5 145.992C664.3 145.253 673 144.791 681.7 143.867C810.5 130.192 877 102.472 1010.8 120.028C1106.7 132.594 1159.9 180.457 1266.6 189.143C1337.5 194.872 1397.2 183.506 1437.2 173.435" stroke="#ffffff33" stroke-miterlimit="10"/>
<path d="M1.90039 36.6829C45.9004 72.3493 103.1 128.713 179.6 158.096C222.5 174.636 260.2 175.098 298.3 177.038C396.3 182.028 478.9 156.988 647.8 139.709C656.5 138.785 665.2 138.138 673.8 137.122C807 121.044 877 97.2049 1001.1 119.288C1099.1 136.752 1151.7 188.034 1262.9 199.03C1335.9 206.237 1397.3 194.964 1438.1 184.8" stroke="#ffffff33" stroke-miterlimit="10"/>
<path d="M1.59961 36.0359C40.9996 77.3387 95.9996 138.507 172.8 170.201C215.1 187.664 252.2 190.806 290.5 188.681C383 183.599 469.1 154.585 640.1 133.61C648.8 132.501 657.4 131.67 665.9 130.469C803.4 111.989 876.6 92.3999 991.4 118.734C1091.3 141.649 1143.5 195.795 1259.2 209.101C1334.3 217.787 1397.5 206.699 1439 196.442" stroke="#ffffff33" stroke-miterlimit="10"/>
<path d="M1.2998 35.3892C36.0998 82.3284 88.9998 148.394 166.1 182.305C207.7 200.6 244.3 204.019 282.9 200.323C369.9 192.1 459.5 152.275 632.7 127.42C641.4 126.218 649.9 125.017 658.3 123.816C800.1 102.749 876 87.78 982.1 118.087C1083.6 147.101 1135.7 203.372 1255.8 219.08C1333 229.152 1397.9 218.341 1440.2 207.9" stroke="#ffffff33" stroke-miterlimit="10"/>
<path d="M1 34.7424C31.3 87.4104 82 158.189 159.3 194.41C286.8 254.1 366.7 163.64 625 121.321C787.7 94.6176 869 81.312 972.3 117.44C1074.7 153.292 1127.4 210.949 1252 229.06C1331.4 240.517 1397.9 229.891 1441 219.45" stroke="#ffffff33" stroke-miterlimit="10"/>
<path d="M1 47.124C32.7 94.71 84.6 159.575 163.4 190.159C275 233.495 350.3 176.299 519.5 138.97C553.2 131.578 590.2 125.849 631.8 121.136C665.5 117.256 695.9 113.467 724.2 111.619C821.4 105.244 881.5 106.63 952 126.034C959.7 128.159 967.5 130.284 975.3 132.779C1075.7 164.287 1127.8 211.226 1251.9 222.314C1293.9 226.103 1332.5 224.532 1366.5 220.004C1395.4 216.216 1420.3 210.764 1439.9 205.775" stroke="#ffffff33" stroke-miterlimit="10"/>
<path d="M1 59.5056C34.1 102.01 87.4 160.776 167.6 186.001C284.4 222.684 361.3 163.825 526.7 133.241C560.7 126.958 597.4 123.724 638.8 121.044C671.8 118.919 701.9 115.315 730.3 116.701C830 121.783 885.6 123.724 954.9 141.926C962.7 143.959 970.6 145.807 978.5 148.025C1076.8 175.375 1128.1 211.411 1252 215.477C1293.1 216.863 1331.4 213.906 1365.7 207.992C1394.7 203.003 1419.7 197.089 1439 191.822" stroke="#ffffff33" stroke-miterlimit="10"/>
<path d="M1 71.8872C35.5 109.217 90.4 161.885 171.7 181.751C293.8 211.596 372.3 151.536 533.8 127.42C568.1 122.338 604.6 123.077 645.7 120.952C678 119.288 707.8 119.381 736.2 121.876C838.9 130.931 889.6 140.91 957.6 158.004C965.6 160.037 973.6 161.515 981.5 163.456C1077.6 186.648 1128.2 205.867 1251.8 208.916C1292 209.933 1329.9 203.557 1364.6 196.258C1393.7 190.159 1418.7 183.691 1437.8 178.24" stroke="#ffffff33" stroke-miterlimit="10"/>
<path d="M1 84.2688C37 116.516 93.5 162.901 175.8 177.593C303.5 200.416 383.5 139.524 540.9 121.691C575.6 117.718 611.6 119.196 652.6 120.952C684.1 122.245 713.7 122.522 742.2 127.142C847.8 144.236 893.6 158.096 960.4 174.082C968.5 176.022 976.6 177.316 984.6 178.886C1078.4 198.106 1128.2 212.705 1251.8 202.264C1291 198.937 1328.7 193.116 1363.7 184.523C1392.9 177.316 1418 170.293 1436.9 164.657" stroke="#ffffff33" stroke-miterlimit="10"/>
<path d="M1 96.6504C38.4 123.816 96.7 163.64 179.9 173.342C313.3 188.866 394.7 127.604 548 115.87C583 113.19 618.6 116.794 659.5 120.767C690.3 123.724 719.6 125.572 748.1 132.224C856.6 157.45 897.6 175.098 963.1 189.974C971.3 191.822 979.5 192.839 987.5 194.225C1079 209.563 1127.9 213.444 1251.6 195.611C1289.8 190.067 1327.2 182.767 1362.5 172.696C1391.8 164.38 1417 156.803 1435.6 150.982" stroke="#ffffff33" stroke-miterlimit="10"/>
<path d="M1 109.032C39.8 131.116 99.9 164.287 184.1 169.184C323.3 177.223 406.2 103.211 555.2 110.048C590.6 111.712 625.7 114.391 666.5 120.674C696.5 125.294 725.6 128.713 754.2 137.306C865.6 170.848 901.8 192.1 966 205.96C974.3 207.715 982.6 208.454 990.7 209.563C1079.8 221.113 1127.9 214.368 1251.7 188.866C1288.9 181.196 1326 172.234 1361.7 160.868C1391.1 151.444 1416.4 143.312 1434.7 137.214" stroke="#ffffff33" stroke-miterlimit="10"/>
<path d="M1 121.414C41.2 138.323 103.5 171.956 188.2 164.934C332.7 153.014 418.3 91.3836 562.3 104.227C598 107.461 632.7 111.896 673.4 120.49C702.6 126.68 731.5 131.855 760.2 142.388C874.4 184.523 905.9 209.009 968.8 221.852C977.3 223.608 985.6 224.07 993.8 224.809C1080.4 232.663 1127.8 215.477 1251.7 182.12C1288 172.326 1324.8 161.792 1360.8 148.949C1390.3 138.415 1415.7 129.73 1433.7 123.446" stroke="#ffffff33" stroke-miterlimit="10"/>
<path d="M1 133.795C42.6 145.622 106.4 165.026 192.3 160.684C343.2 153.107 430.3 80.2032 569.4 98.406C605.3 103.118 639.7 109.402 680.3 120.397C708.7 128.066 737.4 135.089 766.1 147.563C883.1 198.29 909.9 226.01 971.5 237.838C980.1 239.501 988.5 239.686 996.8 240.148C1080.9 244.49 1127.6 216.863 1251.6 175.375C1286.9 163.548 1323.4 151.259 1359.8 137.029C1389.4 125.387 1414.8 116.147 1432.7 109.679" stroke="#ffffff33" stroke-miterlimit="10"/>
<path d="M1 146.177C44.1 152.922 109.7 165.304 196.5 156.526C353.1 140.725 440.6 82.698 576.6 92.6772C613.3 95.3568 646.9 106.907 687.2 120.305C714.9 129.545 743.3 138.323 772.1 152.737C891.7 212.243 914 243.012 974.3 253.823C983 255.394 991.6 254.654 999.8 255.486C1080.9 263.894 1127.5 218.434 1251.4 168.722C1285.7 154.955 1322 140.91 1358.6 125.294C1388.3 112.543 1413.8 102.749 1431.4 96.096" stroke="#ffffff33" stroke-miterlimit="10"/>
<path d="M1 158.558C45.5 160.222 112.9 165.396 200.6 152.275C362.9 128.066 452 72.0721 583.7 86.8561C620.8 91.0141 653.9 104.32 694.1 120.212C721 130.838 749.1 141.649 778.1 157.819C900.2 226.195 918.1 259.921 977.1 269.808C986 271.286 994.5 270.362 1002.9 270.824C1081.8 275.629 1127.7 220.097 1251.4 161.977C1284.8 146.269 1320.8 130.469 1357.7 113.375C1387.6 99.6073 1413.1 89.1661 1430.4 82.2361" stroke="#ffffff33" stroke-miterlimit="10"/>
<path d="M1 170.94C46.9 167.429 116 165.396 204.7 148.117C372.6 115.315 463.3 61.6308 590.8 81.0348C628.2 86.7636 661 101.64 701 120.12C727.2 132.224 754.9 144.976 784 162.994C908.6 240.332 922.1 276.83 979.8 285.793C988.8 287.179 997.4 286.81 1005.9 286.255C1082.5 280.896 1127.9 222.13 1251.3 155.417C1283.9 137.861 1319.4 120.212 1356.7 101.732C1386.7 86.856 1412.3 75.8604 1429.3 68.7456" stroke="#ffffff33" stroke-miterlimit="10"/>
<path d="M1 183.322C48.3 174.728 119.1 165.396 208.9 143.867C382.2 102.379 474.7 51.2819 598 75.2135C635.8 82.5131 668.3 98.8679 708 119.935C733.5 133.425 760.8 148.117 790.1 168.076C917 254.377 926.3 293.647 982.6 301.686C991.7 302.98 1000.4 302.425 1009 301.501C1083.1 293.093 1128.3 224.07 1251.3 148.579C1283 129.083 1318.2 109.679 1355.8 89.7203C1385.9 73.7351 1411.5 62.1851 1428.3 54.8855" stroke="#ffffff33" stroke-miterlimit="10"/>
<path d="M1 195.703C49.8 182.028 122.1 165.304 213 139.709C391.7 89.3509 485.8 41.2104 605.1 69.3925C643.2 78.4477 675.5 96.1885 714.9 119.843C739.7 134.719 766.6 151.444 796.1 173.158C925.2 268.514 930.4 310.556 985.4 317.671C994.7 318.872 1003.5 318.226 1012.1 316.84C1083.8 305.567 1129 226.195 1251.3 141.926C1282.2 120.582 1317 99.2377 1354.8 77.8932C1385 60.8916 1410.7 48.6949 1427.3 41.2104" stroke="#ffffff33" stroke-miterlimit="10"/>
<path d="M1 208.085C51.2 189.328 125 165.211 217.1 135.458C401 76.1377 496.9 31.2313 612.2 63.6637C650.6 74.4745 682.7 93.5089 721.8 119.75C746 136.013 772.3 154.77 802 178.332C933.3 282.652 934.5 327.373 988.2 333.656C997.6 334.765 1006.5 333.934 1015.1 332.178C1084.5 318.041 1129.8 228.32 1251.2 135.181C1281.4 111.989 1315.7 88.8889 1353.8 66.0661C1384.2 48.0481 1409.9 35.2045 1426.2 27.4429" stroke="#ffffff33" stroke-miterlimit="10"/>
<path d="M1 220.466C52.6 196.627 127.9 165.026 221.2 131.3C410.2 62.832 507.7 21.3444 619.4 57.8424C658 70.4088 690.1 90.6444 728.7 119.658C752.3 137.306 778.1 158.096 808 183.506C941.4 296.881 938.6 344.19 991 349.642C1000.5 350.658 1009.5 349.734 1018.2 347.516C1085.4 330.7 1130.8 230.538 1251.1 128.528C1280.6 103.488 1314.3 78.54 1352.8 54.2388C1383.3 35.112 1409.1 21.714 1425.1 13.7676" stroke="#ffffff33" stroke-miterlimit="10"/>
<path d="M1 232.848C54 203.834 130.7 164.934 225.4 127.05C419.3 49.5264 518.4 11.6424 626.5 52.0212C688.6 75.306 733.7 116.054 814 188.588C949.4 311.018 942.7 360.914 993.8 365.534C1092.9 374.59 1131.4 188.126 1351.9 42.3192C1382.5 22.0836 1408.4 8.1312 1424.1 0" stroke="#ffffff33" stroke-miterlimit="10"/>
<path d="M1.09961 234.234C51.7996 214.737 120.6 182.213 203.7 150.242C210.3 147.655 217.1 145.253 223.9 142.666C412.6 70.9631 508.5 29.7527 622.5 60.9839C666.3 72.9959 700 92.5847 741.2 123.631C765 141.557 790.6 163.178 819.8 189.42C953.5 310.094 951.2 366.92 1006.7 371.633C1102.6 379.764 1142.6 203.465 1355.2 59.3207C1384.3 39.5471 1409.1 25.7795 1424.4 17.3711" stroke="#ffffff33" stroke-miterlimit="10"/>
<path d="M1.2002 235.528C53.3002 223.423 121.5 194.04 202.2 165.211C208.9 162.809 215.7 160.684 222.5 158.281C405.8 92.3075 498.9 47.5859 618.6 69.8543C666.2 78.7247 700.7 95.6339 742.9 124.37C768.6 141.834 795.8 163.363 825.6 190.252C957.5 309.263 959.6 372.926 1019.5 377.731C1112.1 385.123 1153.7 218.803 1358.5 76.3223C1386.1 57.1031 1409.9 43.5203 1424.7 34.8347" stroke="#ffffff33" stroke-miterlimit="10"/>
<path d="M1.2998 236.914C54.7998 232.294 122.4 205.96 200.7 180.272C207.4 178.055 214.3 176.207 221.1 173.897C399 113.56 489.6 65.142 614.7 78.7248C666.2 84.3612 701.5 98.5908 744.6 125.11C772.3 142.111 801 163.548 831.5 190.991C961.7 308.339 968.2 378.932 1032.4 383.645C1121.7 390.298 1164.9 234.049 1361.8 93.1392C1388 74.382 1410.6 60.984 1424.9 52.0212" stroke="#ffffff33" stroke-miterlimit="10"/>
<path d="M1.40039 238.207C56.4004 240.979 123.4 217.879 199.2 195.241C205.9 193.208 212.9 191.638 219.7 189.512C392 134.719 480.4 82.3285 610.7 87.6877C666.1 89.9977 702.3 101.455 746.2 125.849C775.9 142.388 806.1 163.733 837.2 191.73C965.7 307.415 976.5 384.846 1045.1 389.651C1131.1 395.657 1175.9 249.48 1365 110.048C1389.7 91.8456 1411.3 78.6324 1425.1 69.3" stroke="#ffffff33" stroke-miterlimit="10"/>
<path d="M1.5 239.593C57.9 249.757 124.5 230.076 197.6 210.302C204.4 208.454 211.4 207.161 218.2 205.128C385 155.694 471.9 108.293 606.8 96.6504C666 91.5684 703.4 104.32 748 126.68C779.8 142.666 811.4 164.01 843.2 192.654C969.9 306.676 985.2 391.037 1058.2 395.842C1140.9 401.293 1187.3 265.003 1368.5 127.142C1391.7 109.494 1412.2 96.3732 1425.6 86.856" stroke="#ffffff33" stroke-miterlimit="10"/>
<path d="M1.59961 240.887C59.4996 258.443 125.7 242.181 196.1 225.271C202.9 223.608 210 222.592 216.8 220.744C377.9 176.577 462.2 115.962 602.9 105.521C666.3 100.809 704.5 106.999 749.7 127.42C783.6 142.758 816.5 164.195 849.1 193.393C974.1 305.659 993.7 397.043 1071.1 401.755C1150.5 406.653 1198.6 280.434 1371.9 143.959C1393.7 126.865 1413.1 113.929 1425.9 104.043" stroke="#ffffff33" stroke-miterlimit="10"/>
<path d="M1.7002 242.273C61.0002 267.313 126.9 254.562 194.6 240.332C201.5 238.854 208.5 238.115 215.4 236.359C370.8 197.274 453.1 132.502 599 114.391C666.4 106.075 705.6 109.494 751.4 128.159C787.5 142.85 821.7 164.38 854.9 194.132C978.2 304.735 1002.2 403.049 1083.9 407.761C1160 412.104 1209.8 295.957 1375.1 160.868C1395.4 144.236 1413.7 131.485 1426.1 121.321" stroke="#ffffff33" stroke-miterlimit="10"/>
<path d="M1.7998 243.566C62.5998 275.999 128.1 266.851 193.1 255.301C200.1 254.1 207.1 253.546 214 251.975C363.5 217.879 443.8 148.856 595 123.354C666.3 111.342 706.7 112.081 753 128.898C791.3 142.85 826.8 164.564 860.7 194.872C982.2 303.811 1010.6 409.147 1096.8 413.767C1169.5 417.648 1221.2 311.573 1378.5 177.778C1397.4 161.792 1414.6 149.134 1426.5 138.692" stroke="#ffffff33" stroke-miterlimit="10"/>
<path d="M1.90039 244.953C64.1004 284.777 129.4 279.418 191.5 270.363C198.5 269.346 205.6 268.977 212.4 267.591C356.2 238.3 434.4 165.119 591 132.225C666.2 116.424 707.8 114.484 754.6 129.637C795.2 142.758 831.9 164.842 866.5 195.703C986.3 302.887 1019 415.338 1109.6 419.866C1179 423.284 1232.5 327.373 1381.7 194.779C1399.1 179.349 1415.2 166.782 1426.6 156.064" stroke="#ffffff33" stroke-miterlimit="10"/>
<path d="M2 246.246C65.6 293.462 130.6 291.984 190 285.331C197.1 284.5 204.2 284.407 211 283.206C349 258.628 425.1 181.381 587.1 141.187C666.2 121.598 709 116.886 756.3 130.469C799.1 142.758 837.1 165.119 872.3 196.535C990.4 302.056 1027.5 421.529 1122.4 425.872C1188.5 428.921 1243.8 343.081 1385 211.688C1401 196.812 1416 184.43 1426.9 173.342" stroke="#ffffff33" stroke-miterlimit="10"/>
<path d="M2.09961 247.632C67.0996 302.24 131.9 304.735 188.5 300.392C195.6 299.838 202.7 299.93 209.6 298.822C341.6 278.678 415.7 197.459 583.2 150.058C666.1 126.68 710.2 119.288 758 131.208C803.1 142.481 842.2 165.304 878.2 197.274C994.5 301.132 1036 427.72 1135.4 431.878C1198.2 434.465 1255.5 358.974 1388.4 228.598C1403 214.276 1416.8 201.986 1427.3 190.714" stroke="#ffffff33" stroke-miterlimit="10"/>
<path d="M2.2002 248.926C68.7002 311.018 133.3 312.589 187 315.454C194.2 315.823 201.3 315.361 208.2 314.53C334.3 298.822 406.2 213.629 579.3 159.02C666 131.67 711.5 121.506 759.7 132.04C807 142.296 847.4 165.488 884 198.106C998.6 300.3 1044.4 434.095 1148.2 437.976C1207.7 440.194 1267.1 375.052 1391.7 245.599C1404.9 231.924 1417.6 219.727 1427.5 208.085" stroke="#ffffff33" stroke-miterlimit="10"/>
<path d="M2.2002 250.312C70.2002 319.796 134.6 326.542 185.3 330.515C192.6 331.069 199.7 330.792 206.6 330.145C326.8 318.595 396.5 229.706 575.2 167.983C665.7 136.752 712.5 123.724 761.2 132.779C810.8 142.019 852.4 165.766 889.7 198.937C1002.6 299.376 1052.8 440.471 1161 443.982C1217.1 445.83 1278.9 391.222 1394.9 262.508C1406.7 249.48 1418.2 237.283 1427.7 225.364" stroke="#ffffff33" stroke-miterlimit="10"/>
<path d="M2.2998 251.605C71.6998 328.482 135.6 343.543 183.8 345.484C191.1 345.761 198.3 346.223 205.2 345.761C319.6 338.276 387 245.692 571.4 176.854C665.6 141.742 713.8 125.849 763 133.518C814.8 141.557 857.7 165.95 895.7 199.676C1006.8 298.452 1061.4 446.846 1174 449.988C1226.8 451.466 1291.2 407.484 1398.4 279.418C1408.8 266.944 1419.2 254.932 1428.2 242.735" stroke="#ffffff33" stroke-miterlimit="10"/>
<path d="M2.40039 252.991C73.3004 337.353 136.8 356.664 182.3 360.453C189.7 361.099 196.8 361.561 203.8 361.284C312.3 357.68 377.2 261.584 567.4 185.724C665.3 146.639 714.8 127.974 764.7 134.257C818.8 141.095 862.9 166.135 901.6 200.508C1011 297.62 1069.9 453.407 1186.9 456.086C1236.4 457.195 1303.6 424.024 1401.7 296.419C1410.8 284.592 1419.9 272.58 1428.4 260.106" stroke="#ffffff33" stroke-miterlimit="10"/>
<path d="M2.5 254.285C74.8 346.038 137.9 369.877 180.8 375.513C297.3 390.759 354.2 283.298 563.5 194.687C665.1 151.628 715.9 130.099 766.4 135.089C976.5 155.694 1034 459.228 1199.8 462.092C1250 462.924 1329.1 436.497 1428.8 277.385" stroke="#ffffff33" stroke-miterlimit="10"/>
</svg>
