<svg width="80" height="64" viewBox="0 0 80 64" fill="none" xmlns="http://www.w3.org/2000/svg">
<g filter="url(#filter0_d_262_7101)">
<path d="M12.5078 46.2861L9.05254 50.6867L7.27057 46.2861H5.5212L4 53.8921H5.97755L6.78161 49.8826L8.16156 53.1423H9.10687L11.6386 49.8826L10.8562 53.8921H12.8447L14.3441 46.2861H12.5078Z" fill="#2189E3"/>
<path d="M17.5397 53.9898C19.6477 53.9898 21.158 52.5338 21.158 50.578C21.158 48.959 19.9519 47.9051 18.0722 47.9051C15.9642 47.9051 14.4539 49.3611 14.4539 51.306C14.4539 52.925 15.66 53.9898 17.5397 53.9898ZM17.6593 52.3274C16.953 52.3274 16.551 51.8928 16.551 51.2082C16.551 50.2195 17.1268 49.5566 17.9526 49.5566C18.6589 49.5566 19.0609 50.0021 19.0609 50.6867C19.0609 51.6646 18.4851 52.3274 17.6593 52.3274Z" fill="#2189E3"/>
<path d="M26.211 47.9051C25.5916 47.9051 25.0701 48.1006 24.6463 48.4483L25.1679 45.8297H23.1034L21.4953 53.8921H23.462L23.625 53.0554C23.9835 53.7073 24.6572 53.9898 25.5047 53.9898C27.265 53.9898 28.6992 52.5447 28.6992 50.578C28.6992 48.8721 27.4823 47.9051 26.211 47.9051ZM25.2113 52.3274C24.5051 52.3274 24.0922 51.8928 24.0922 51.2082C24.0922 50.2195 24.6789 49.5566 25.4938 49.5566C26.2001 49.5566 26.613 50.0021 26.613 50.6867C26.613 51.6646 26.0263 52.3274 25.2113 52.3274Z" fill="#2189E3"/>
<path d="M31.5386 47.3509C32.3426 47.3509 32.875 46.8511 32.875 46.1448C32.875 45.5798 32.4078 45.156 31.6798 45.156C30.8758 45.156 30.3542 45.6667 30.3542 46.3295C30.3542 46.8946 30.8106 47.3509 31.5386 47.3509ZM29.0503 53.8921H31.1039L32.2774 48.0029H30.2238L29.0503 53.8921Z" fill="#2189E3"/>
<path d="M32.4352 53.8921H34.4997L36.1078 45.8297H34.0434L32.4352 53.8921Z" fill="#2189E3"/>
<path d="M42.502 50.4911C42.502 48.9482 41.3937 47.9051 39.6009 47.9051C37.4821 47.9051 36.037 49.3502 36.037 51.306C36.037 52.9467 37.2756 53.9898 39.1663 53.9898C40.0573 53.9898 40.9374 53.7725 41.6763 53.2292L40.8179 51.9362C40.4267 52.2513 39.916 52.4143 39.3945 52.4143C38.5795 52.4143 38.134 52.1101 38.058 51.4581H42.3825C42.4477 51.1648 42.502 50.8388 42.502 50.4911ZM39.5031 49.3719C40.1659 49.3719 40.6114 49.7414 40.6005 50.3716H38.1775C38.3731 49.7848 38.8077 49.3719 39.5031 49.3719Z" fill="#2189E3"/>
<path d="M48.8662 54.0442C51.0937 54.0442 52.5279 52.9685 52.5279 51.3386C52.5279 48.9916 48.8227 49.5892 48.8336 48.5461C48.8336 48.1332 49.3117 47.8073 50.2027 47.8073C50.9524 47.8073 51.6913 48.0029 52.2889 48.3832L53.0712 46.7859C52.3867 46.3621 51.4088 46.134 50.3331 46.134C48.0839 46.134 46.6822 47.2097 46.6822 48.8504C46.6822 51.2408 50.3765 50.6758 50.3765 51.6972C50.3765 52.1101 49.8984 52.3709 49.0726 52.3709C48.2034 52.3709 47.3124 52.1101 46.5409 51.6211L45.6934 53.2292C46.3779 53.6965 47.5623 54.0442 48.8662 54.0442Z" fill="#1D1F22"/>
<path d="M57.8245 47.9051C57.2269 47.9051 56.6184 48.0898 56.1077 48.4918L56.6402 45.8297H54.5757L52.9676 53.8921H55.032L55.6188 50.98C55.8035 50.0782 56.2925 49.6544 56.9987 49.6544C57.5529 49.6544 57.8137 49.9261 57.8137 50.4368C57.8137 50.5563 57.8028 50.6867 57.7702 50.8279L57.1617 53.8921H59.2262L59.8781 50.6323C59.9325 50.3824 59.9542 50.1434 59.9542 49.9261C59.9542 48.5896 59.0632 47.9051 57.8245 47.9051Z" fill="#1D1F22"/>
<path d="M63.8887 53.9898C65.9966 53.9898 67.507 52.5338 67.507 50.578C67.507 48.959 66.3009 47.9051 64.4211 47.9051C62.3132 47.9051 60.8028 49.3611 60.8028 51.306C60.8028 52.925 62.0089 53.9898 63.8887 53.9898ZM64.0082 52.3274C63.3019 52.3274 62.8999 51.8928 62.8999 51.2082C62.8999 50.2195 63.4758 49.5566 64.3016 49.5566C65.0078 49.5566 65.4099 50.0021 65.4099 50.6867C65.4099 51.6646 64.834 52.3274 64.0082 52.3274Z" fill="#1D1F22"/>
<path d="M72.5599 47.9051C71.8754 47.9051 71.3104 48.1332 70.854 48.557L70.9735 48.0029H69.0177L67.4204 56H69.4849L70.0499 53.1858C70.4194 53.7508 71.0605 53.9898 71.8537 53.9898C73.6139 53.9898 75.0482 52.5447 75.0482 50.578C75.0482 48.8721 73.8312 47.9051 72.5599 47.9051ZM71.5603 52.3274C70.854 52.3274 70.4411 51.8928 70.4411 51.2082C70.4411 50.2195 71.0279 49.5566 71.8428 49.5566C72.549 49.5566 72.9619 50.0021 72.9619 50.6867C72.9619 51.6646 72.3752 52.3274 71.5603 52.3274Z" fill="#1D1F22"/>
<path d="M43.1441 30.2123C38.2165 30.2123 33.5652 27.4492 31.3087 22.9361L26.4732 13.2652C24.2627 8.84417 19.3352 6.44946 14.4997 7.50866C13.6247 7.69287 12.7958 7.14024 12.6116 6.26525C12.4274 5.39027 12.98 4.56133 13.855 4.37712C20.118 3.04161 26.4732 6.1271 29.3745 11.8375L34.1639 21.5085C36.1441 25.4229 40.5191 27.6334 44.8019 26.8505L65.0648 22.9821C65.9398 22.7979 66.7687 23.3966 66.9529 24.2716C67.1372 25.1466 66.5385 25.9755 65.6635 26.1597L45.3545 30.0281C44.6638 30.1662 43.8809 30.2123 43.1441 30.2123Z" fill="#2189E3"/>
<path d="M44.7099 39.1464C46.7954 39.1464 48.4861 37.4557 48.4861 35.3701C48.4861 33.2845 46.7954 31.5939 44.7099 31.5939C42.6243 31.5939 40.9336 33.2845 40.9336 35.3701C40.9336 37.4557 42.6243 39.1464 44.7099 39.1464Z" fill="#2189E3"/>
<path d="M59.7685 36.153C61.854 36.153 63.5447 34.4623 63.5447 32.3767C63.5447 30.2912 61.854 28.6005 59.7685 28.6005C57.6829 28.6005 55.9922 30.2912 55.9922 32.3767C55.9922 34.4623 57.6829 36.153 59.7685 36.153Z" fill="#2189E3"/>
<path d="M38.1702 22.3835C52.2621 16.0743 56.6831 6.2192 58.0186 0.0942856C57.0515 -0.0438704 56.0384 -0.0438701 55.0252 0.18639L29.0059 6.08105L34.8545 18.2848C35.6374 19.9427 36.7887 21.3243 38.1702 22.3835Z" fill="#2189E3"/>
<path d="M64.7883 7.50867C64.5581 3.87056 61.9791 1.06138 58.7094 0.232449C58.2489 16.0283 51.0648 22.2914 47.1504 24.5479C47.2425 24.5479 47.3346 24.5019 47.4267 24.5019L65.6173 20.7256L64.7883 7.50867Z" fill="#2189E3"/>
</g>
<defs>
<filter id="filter0_d_262_7101" x="0" y="0" width="79.0479" height="64" filterUnits="userSpaceOnUse" color-interpolation-filters="sRGB">
<feFlood flood-opacity="0" result="BackgroundImageFix"/>
<feColorMatrix in="SourceAlpha" type="matrix" values="0 0 0 0 0 0 0 0 0 0 0 0 0 0 0 0 0 0 127 0" result="hardAlpha"/>
<feOffset dy="4"/>
<feGaussianBlur stdDeviation="2"/>
<feComposite in2="hardAlpha" operator="out"/>
<feColorMatrix type="matrix" values="0 0 0 0 0 0 0 0 0 0 0 0 0 0 0 0 0 0 0.25 0"/>
<feBlend mode="normal" in2="BackgroundImageFix" result="effect1_dropShadow_262_7101"/>
<feBlend mode="normal" in="SourceGraphic" in2="effect1_dropShadow_262_7101" result="shape"/>
</filter>
</defs>
</svg>
