<svg width="130" height="86" viewBox="0 0 130 86" fill="none" xmlns="http://www.w3.org/2000/svg">
<g opacity="0.01">
<rect x="0.00195312" y="0.666687" width="129.033" height="85.3333" fill="white"/>
</g>
<rect x="47.5017" y="15.5333" width="34.0333" height="55.6" fill="#F26122"/>
<path d="M51.1693 43.3333C51.1131 32.5118 56.0284 22.2635 64.5027 15.5333C50.0035 4.13099 29.1758 5.78674 16.6603 19.3367C4.1448 32.8866 4.1448 53.78 16.6603 67.33C29.1758 80.8799 50.0035 82.5357 64.5027 71.1333C56.0284 64.4032 51.1131 54.1549 51.1693 43.3333Z" fill="#EA1D25"/>
<path fill-rule="evenodd" clip-rule="evenodd" d="M118.301 64.1V65.2334H118.101V64.1H117.635V63.8667H118.801V64.1H118.301ZM120.569 63.8667V65.2334H120.336V64.2L119.969 65.1H119.703L119.303 64.2V65.2334H119.069V63.8667H119.403L119.836 64.8334L120.236 63.8667H120.569Z" fill="#F69E1E"/>
<path d="M121.7 43.3333C121.692 56.8645 113.963 69.2047 101.793 75.1194C89.6232 81.0342 75.1451 79.4867 64.5002 71.1333C79.8338 59.0598 82.4891 36.8476 70.4336 21.5C68.7054 19.2776 66.713 17.2739 64.5002 15.5333C75.1451 7.17997 89.6232 5.63247 101.793 11.5472C113.963 17.462 121.692 29.8022 121.7 43.3333V43.3333Z" fill="#F69E1E"/>
</svg>
