<svg width="161" height="107" viewBox="0 0 161 107" fill="none" xmlns="http://www.w3.org/2000/svg">
<rect x="0.5" y="0.166626" width="160" height="106.667" rx="4" fill="#DFE3E8"/>
<path d="M97.9116 47.0308H76.4087C75.9829 47.0308 75.77 47.3501 75.77 47.6695V49.3727C75.77 49.7985 76.0894 50.0114 76.4087 50.0114H92.4827V58.9532C92.0569 58.3145 91.5246 57.6758 90.9924 57.0371C89.0763 55.121 87.0537 54.1629 84.9247 54.1629C83.2215 54.1629 81.8377 55.0145 80.6667 56.5048C79.7087 57.7822 79.1764 59.2725 79.1764 60.6564C79.1764 62.0402 79.3893 63.8499 80.4538 65.5531C81.7312 67.5756 83.8602 68.2143 85.7763 68.2143C88.2247 68.2143 90.2472 66.5111 90.2472 64.2757C90.2472 62.9983 89.6085 61.9338 88.4376 61.1886L87.2666 60.5499V62.466C87.1602 62.9983 86.3086 63.7434 85.3505 63.7434C84.4989 63.7434 83.7538 63.4241 83.2215 62.8918C82.9022 62.5725 82.6893 61.9338 82.7957 61.508C82.7957 60.8693 83.0086 60.337 83.4344 59.8048C83.9667 59.1661 84.4989 58.8467 85.3505 58.8467C87.4795 58.8467 89.2892 59.8048 90.7795 61.9338C91.9504 63.7434 92.5891 65.4466 92.5891 67.3627V71.8336L95.7826 73.7497C95.8891 73.8562 95.9955 73.8562 96.102 73.8562C96.5278 73.8562 96.7407 73.5368 96.7407 73.2175V50.1178H98.0181C98.4439 50.1178 98.6568 49.7985 98.6568 49.4791V47.7759C98.6568 47.3501 98.3374 47.0308 97.9116 47.0308Z" fill="#ED1C24"/>
<path d="M140.917 47.0308H113.666C113.24 47.0308 113.028 47.3501 113.028 47.6695V50.6501C110.366 47.8824 108.024 46.4985 105.895 46.4985C103.873 46.4985 102.17 46.9243 100.679 48.0953C99.2954 49.1598 98.4438 50.5436 98.4438 52.1404C98.4438 56.9306 103.766 56.8242 105.15 56.1855C105.363 56.079 105.682 55.8661 106.002 55.8661C107.066 55.8661 107.492 56.7177 107.492 57.4629C107.492 58.5274 105.895 59.4854 103.979 59.4854C102.915 59.4854 102.276 59.1661 101.85 58.5274L100.999 57.25L100.466 58.7403C100.36 59.0596 100.147 59.4854 100.147 60.0177C100.147 61.0822 100.679 62.1467 101.744 63.1047C102.702 63.9563 103.873 64.3821 105.15 64.3821C107.173 64.3821 108.876 63.637 109.94 62.1467C110.899 60.9757 111.324 59.5919 111.324 57.9951C111.324 57.1435 111.005 56.1855 110.26 55.121C109.408 53.8436 108.344 53.2049 107.173 53.2049C106.747 53.2049 106.215 53.3113 105.682 53.5242C105.47 53.6307 105.044 53.7371 104.937 53.7371C104.724 53.7371 104.405 53.6307 104.192 53.3113C103.979 53.0984 103.766 52.7791 103.766 52.2468C103.766 51.0759 104.831 49.9049 106.747 49.9049H106.853C108.131 49.9049 109.408 50.5436 110.579 51.7146C111.537 52.6726 112.282 53.6307 112.921 54.6952V71.6207L116.115 73.5368C116.221 73.6433 116.327 73.6433 116.434 73.6433C116.86 73.6433 117.073 73.3239 117.073 73.0046V50.1178H121.969V64.9144L125.802 66.5111H126.014C126.334 66.5111 126.653 66.2982 126.653 65.8724V65.766C127.292 61.4015 129.208 58.4209 132.401 56.6113V57.4629C132.401 58.1016 132.401 59.6983 132.508 60.5499C132.508 61.0822 132.508 61.4015 132.614 61.7209C132.614 63.4241 132.827 65.9789 133.359 67.895C134.424 71.5143 136.234 72.3659 137.511 72.3659H137.617C138.363 72.3659 139.001 72.153 139.427 71.7272C139.64 71.5143 139.959 71.0885 139.959 70.3433C139.959 69.7046 139.853 69.1724 139.64 68.7466L139.321 68.2143L138.682 68.3208C138.043 68.5337 137.724 68.5337 137.724 68.4272H137.617C137.405 68.4272 137.405 68.4272 137.298 68.3208C137.085 68.2143 136.659 67.895 136.34 66.724C136.127 65.8724 136.021 64.7015 136.021 64.0628C136.021 59.2725 136.979 55.6532 138.576 54.9081H138.682C138.895 54.8016 139.108 54.5887 139.108 54.2694C139.108 54.1629 139.108 54.0565 139.001 53.95V53.8436C138.256 52.3533 136.659 51.2888 134.53 50.7565H134.105C132.401 51.0759 130.379 52.2468 127.824 54.3758C127.185 54.9081 126.547 55.4403 126.014 55.9726V50.1178H140.917C141.343 50.1178 141.556 49.7985 141.556 49.4791V47.7759C141.663 47.3501 141.343 47.0308 140.917 47.0308Z" fill="#ED1C24"/>
<path d="M68.7444 54.9081C68.7444 55.6533 68.7444 56.292 68.638 56.9307C68.4251 59.9113 67.6799 62.679 66.509 65.2338C66.0832 66.2983 65.5509 67.2563 64.9122 68.2144C60.4413 75.2401 52.564 79.9239 43.6222 79.9239C39.79 79.9239 36.1707 79.0723 32.9772 77.582C24.4612 73.6433 18.5 64.9144 18.5 54.9081C18.5 45.0082 24.2483 36.4922 32.445 32.4471C31.8063 33.2987 31.1676 34.1503 30.6353 35.1084C30.6353 35.2148 30.5289 35.2148 30.5289 35.3213C30.2095 35.6406 29.8902 35.8535 29.5708 36.1729C29.145 36.4922 28.8257 36.918 28.3999 37.2374L28.187 37.4503L27.9741 37.6632C27.8676 37.7696 27.7612 37.9825 27.5483 38.089C27.3354 38.4083 27.016 38.7277 26.8031 39.047C25.7386 40.4309 24.887 41.9212 24.2483 43.5179C24.1419 43.6244 24.1419 43.8373 24.0354 43.9437C23.929 44.1566 23.929 44.3695 23.8225 44.476C23.8225 44.5824 23.7161 44.6889 23.7161 44.7953C23.6096 45.1147 23.5032 45.3276 23.3967 45.6469C23.2903 45.8598 23.2903 46.0727 23.1838 46.1792C23.1838 46.2856 23.0774 46.3921 23.0774 46.4986C23.0774 46.7115 22.9709 46.9243 22.9709 47.1372L22.6516 49.0534C22.6516 49.2663 22.6516 49.3727 22.5451 49.5856V52.1404C22.5451 58.9532 25.6322 65.1273 30.6353 69.066C34.4675 72.153 39.2578 74.0691 44.4738 74.0691C49.2641 74.0691 53.6285 72.5788 57.2478 69.9176C59.9091 68.0015 62.0381 65.5531 63.6348 62.679C63.8477 62.2532 64.0606 61.9338 64.2735 61.508C65.5509 58.8468 66.2961 55.9726 66.2961 52.8856V52.1404C66.2961 51.3953 66.2961 50.7566 66.1896 50.0114L66.2961 50.1179C66.6154 50.4372 66.9348 50.6501 67.2541 50.9695C67.5735 50.4372 67.8928 50.0114 68.2122 49.4792C68.4251 50.4372 68.5315 51.3953 68.638 52.4598C68.7444 53.4178 68.7444 54.163 68.7444 54.9081Z" fill="#ED1C24"/>
<path d="M46.6028 34.7891L41.919 26.1666C34.1482 29.6795 28.8257 37.4503 28.8257 46.4986C28.8257 51.0759 30.2095 55.3339 32.5514 58.8468C32.3385 57.6758 32.3385 56.5049 32.3385 55.2275C32.445 45.9663 38.2997 38.089 46.6028 34.7891Z" fill="#F7941D"/>
<path d="M50.3288 39.047C52.2449 38.5148 54.3739 38.3019 56.3964 38.3019C57.6738 38.3019 59.0577 38.4083 60.2286 38.6212L60.1222 34.789L59.9093 27.1246C59.0577 27.0182 58.0996 26.9117 57.1416 26.9117C52.8836 26.9117 48.9449 28.2956 45.7514 30.531L48.3062 35.2148C43.7289 36.8116 40.0031 40.0051 37.6612 44.1567C36.4903 46.1792 35.6387 48.5211 35.3193 50.9695C35.958 49.6921 36.7032 48.5211 37.5548 47.4566C40.6418 43.4115 45.1127 40.3244 50.3288 39.047Z" fill="#ED1C24"/>
<path d="M61.506 34.6826L61.7189 40.1116C59.9092 39.5793 58.0996 39.26 56.077 39.26C52.3512 39.26 48.8384 40.3245 45.7513 42.1341C41.9191 44.476 38.9385 48.2018 37.4482 52.5662C38.9385 50.5437 40.7482 48.734 42.8772 47.3502C45.9642 45.3276 49.69 44.1567 53.6287 44.1567C56.6093 44.1567 59.377 44.7954 61.9318 45.9663C63.8479 46.8179 65.5511 47.9889 67.0414 49.4792L70.022 45.0083L73.8542 39.1535C70.4478 36.3858 66.1898 34.6826 61.506 34.6826Z" fill="#F7941D"/>
<path d="M66.2959 52.3533V53.0984C66.2959 57.5693 64.4862 61.2951 64.2733 61.7209C64.0604 62.1467 63.8475 62.466 63.6346 62.8918C62.0379 65.766 59.9089 68.2143 57.2476 70.1304C53.6283 72.6852 49.2639 74.282 44.4736 74.282C39.2576 74.282 34.3609 72.4723 30.6351 69.2788C25.7384 65.2337 22.5449 59.1661 22.5449 52.3533V49.7985C22.5449 49.5856 22.5449 49.4791 22.6514 49.2662L22.9707 47.3501C22.9707 47.1372 23.0772 46.9243 23.0772 46.7114C23.0772 46.605 23.1836 46.4985 23.1836 46.3921C23.2901 46.1792 23.2901 45.9663 23.3965 45.8598C23.503 45.5405 23.6094 45.2211 23.7159 45.0082C23.7159 44.9018 23.8223 44.7953 23.8223 44.6889C23.9288 44.476 23.9288 44.2631 24.0352 44.1566C24.1417 44.0502 24.1417 43.8373 24.2481 43.7308C24.8868 42.1341 25.8449 40.6438 26.8029 39.2599C27.0158 38.9406 27.3352 38.6212 27.5481 38.3019C27.6545 38.1954 27.761 37.9825 27.9739 37.8761C28.0803 37.7696 28.0803 37.6632 28.1868 37.6632C28.2932 37.5567 28.2932 37.4503 28.3997 37.4503C28.719 37.0245 29.1448 36.7051 29.5706 36.3858C29.89 36.0664 30.2093 35.8535 30.5287 35.5342C30.5287 35.6406 30.4222 35.6406 30.4222 35.7471C30.4222 35.8535 30.3158 35.96 30.3158 35.96C29.0384 38.5148 28.1868 41.6018 27.8674 44.7953C27.761 45.6469 27.761 46.4985 27.761 47.4566C27.761 58.9532 34.4673 68.2143 42.7704 68.2143H43.622C44.793 68.2143 45.9639 68.0014 47.1349 67.7885C52.7767 66.2982 56.9283 61.0822 56.9283 55.0145V54.6952C56.8218 51.0759 55.3315 47.7759 52.8832 45.5405C54.5864 45.5405 56.2896 45.8598 57.8863 46.2856C60.9734 47.0308 63.7411 48.5211 66.1894 50.4372L66.2959 50.5436C66.1894 50.9694 66.2959 51.7146 66.2959 52.3533Z" fill="#F7941D"/>
<path d="M66.2959 52.3533V53.0985C66.2959 57.7823 64.1669 61.8274 64.1669 61.8274C63.954 62.2532 63.7411 62.5725 63.5282 62.9983C61.9315 65.8725 59.696 68.3208 57.0348 70.2369C53.309 73.0046 48.8381 74.3885 44.1543 74.3885C39.0447 74.3885 34.148 72.5788 30.2093 69.3853C25.0997 65.2338 22.1191 58.9532 22.1191 52.3533C22.1191 45.7534 25.0997 39.4729 30.2093 35.3213L30.4222 35.1084C30.4222 35.2148 30.3158 35.2148 30.3158 35.3213C30.3158 35.4277 30.2093 35.4277 30.2093 35.5342C25.2062 39.6858 22.332 45.7534 22.332 52.3533C22.332 58.9532 25.2062 65.0209 30.3158 69.2789C34.148 72.4724 39.1511 74.1756 44.1543 74.1756C48.7317 74.1756 53.2026 72.7917 56.9283 70.024C59.5896 68.1079 61.7186 65.6596 63.3153 62.7854C63.5282 62.3596 63.7411 62.0403 63.8476 61.6145C63.8476 61.6145 65.9766 57.6758 65.9766 52.992V52.2469C65.9766 51.5017 65.9766 50.863 65.8701 50.1179V50.0114L65.9766 50.1179L66.083 50.2243C66.2959 51.0759 66.2959 51.7146 66.2959 52.3533Z" fill="#F7941D"/>
</svg>
