<svg width="128" height="128" viewBox="0 0 128 128" fill="none" xmlns="http://www.w3.org/2000/svg">
<path d="M64 104C56.0888 104 48.3552 101.654 41.7772 97.2588C35.1992 92.8635 30.0723 86.6164 27.0448 79.3073C24.0173 71.9983 23.2252 63.9556 24.7686 56.1964C26.312 48.4372 30.1216 41.3098 35.7157 35.7157C41.3098 30.1216 48.4372 26.312 56.1964 24.7686C63.9556 23.2252 71.9983 24.0173 79.3073 27.0448C86.6164 30.0723 92.8635 35.1992 97.2588 41.7772C101.654 48.3552 104 56.0888 104 64C104 74.6087 99.7857 84.7828 92.2843 92.2843C84.7828 99.7857 74.6087 104 64 104ZM64 29.3333C57.1436 29.3333 50.4411 31.3665 44.7402 35.1757C39.0393 38.985 34.596 44.3991 31.9722 50.7337C29.3484 57.0682 28.6618 64.0385 29.9995 70.7631C31.3371 77.4878 34.6388 83.6648 39.487 88.513C44.3352 93.3613 50.5122 96.6629 57.2369 98.0006C63.9616 99.3382 70.9319 98.6517 77.2664 96.0278C83.6009 93.404 89.0151 88.9607 92.8243 83.2598C96.6335 77.5589 98.6667 70.8564 98.6667 64C98.6667 54.8058 95.0143 45.9882 88.513 39.487C82.0118 32.9857 73.1942 29.3333 64 29.3333V29.3333Z" fill="#0ABB75"/>
<path d="M57.7084 79.6863C57.3454 79.6851 56.9866 79.6087 56.6542 79.4618C56.3217 79.3149 56.0228 79.1006 55.776 78.8323L43.4143 65.4894C42.9919 64.9643 42.7829 64.2971 42.8297 63.6227C42.8764 62.9482 43.1753 62.3168 43.6661 61.856C44.1568 61.3952 44.8027 61.1393 45.4733 61.1401C46.144 61.1408 46.7893 61.3982 47.279 61.8601L57.7084 73.0949L80.4731 48.5172C80.7017 48.2331 80.9857 47.9993 81.3077 47.8305C81.6297 47.6617 81.9826 47.5614 82.3446 47.5359C82.7067 47.5104 83.07 47.5602 83.4121 47.6823C83.7543 47.8043 84.0678 47.996 84.3334 48.2453C84.5989 48.4947 84.8108 48.7965 84.9557 49.1318C85.1007 49.4672 85.1758 49.8291 85.1762 50.195C85.1766 50.5608 85.1024 50.9228 84.9582 51.2586C84.8139 51.5943 84.6028 51.8965 84.3378 52.1465L59.6407 78.8323C59.3939 79.1006 59.095 79.3149 58.7626 79.4618C58.4302 79.6087 58.0713 79.6851 57.7084 79.6863Z" fill="#0ABB75"/>
</svg>
